<svg width="150" height="51" viewBox="0 0 150 51" fill="none" xmlns="http://www.w3.org/2000/svg">
<g clip-path="url(#clip0_17_303)">
<path d="M66.2995 22.5834L64.2002 24.6655L66.2995 26.7476L68.3987 24.6655L66.2995 22.5834Z" fill="#0D176B"/>
<path d="M62.1022 22.5824L60.0029 24.6646L62.1022 26.7467L64.2015 24.6645L62.1022 22.5824Z" fill="#0D176B"/>
<path d="M86.2275 27.017L89.734 23.5637V21.8977L86.2275 25.3755V27.017Z" fill="#0D176B"/>
<path d="M86.2277 15.9693H85.5368H82.7213H79.2148V12.4915L75.7084 9.01371H75.0162H72.2019L68.6942 12.4915V13.0554V15.9693H68.0033H47.6543L51.1607 19.4483H68.0033H68.6942L72.2019 15.9693V13.0554V12.4915H75.0162H75.7084V15.9693L79.2148 19.4483H82.7213H85.5368H86.2277L89.7354 15.9693V2.05688L86.2277 5.53591V15.9693Z" fill="#0D176B"/>
<path d="M101.898 22.9261L101.206 23.6114L98.3916 26.4039H101.206H101.898L105.405 22.9261V9.01367L101.898 12.4915V22.9261Z" fill="#0D176B"/>
<path d="M133.834 2.80956L132.351 1.36426L130.894 2.80956V4.54908L131.487 5.13627L130.869 5.74921V7.48872L133.835 4.54662L133.834 2.80956ZM132.351 4.28061L131.759 3.69342L132.351 3.105L132.944 3.69342L132.351 4.28061Z" fill="#0D176B"/>
<path d="M128.199 15.9693H117.679V12.4915L114.172 9.01367H110.666L107.159 12.4915V15.9693L110.666 19.4483H114.172V22.9237L113.481 23.6089L110.666 26.4015H114.172L117.679 22.9237V19.4483H131.706L133.014 18.1501L133.459 17.7088L131.706 15.9693H128.199ZM114.172 15.9693H110.666V12.4915H114.172V15.9693Z" fill="#0D176B"/>
<path d="M138.399 3.47868L136.3 5.56079L138.399 7.6429L140.498 5.56079L138.399 3.47868Z" fill="#0D176B"/>
<path d="M140.499 0.00260587L138.399 2.08472L140.499 4.16683L142.598 2.08472L140.499 0.00260587Z" fill="#0D176B"/>
<path d="M142.596 3.47844L140.497 5.56055L142.596 7.64266L144.696 5.56055L142.596 3.47844Z" fill="#0D176B"/>
<path d="M145.733 12.4915V15.9693H145.042H142.226V9.01367L138.72 12.4915V15.9693L142.226 19.4483H145.042H145.733L149.239 15.9693V9.01367L145.733 12.4915Z" fill="#0D176B"/>
<path d="M135.212 15.9693V9.01367L131.705 12.4915V15.9693L135.212 19.4483H138.719L140.028 18.1501L140.472 17.7088L138.719 15.9693H137.829H135.212Z" fill="#0D176B"/>
<path d="M48.3268 45.991V42.7351H58.1738L58.7547 42.284V41.7336L58.1738 41.2824H50.5936L47.998 39.1543V35.4277L50.5936 33.2996H62.6122V36.5543H53.3943L52.8134 37.0299V37.5558L53.3943 38.0327H60.9708L63.5663 40.1363V43.8678L60.9708 45.9959L48.3268 45.991Z" fill="#0D176B"/>
<path d="M71.3476 45.991L67.7373 43.0109V33.2947H72.5576V41.3119L73.5464 42.1381H76.9811L78.3691 41.1366V33.2947H83.1894V45.991H79.3493V44.8878H78.7436L77.2283 45.991H71.3476Z" fill="#0D176B"/>
<path d="M88.4414 45.991V33.2947H92.2791V34.398H92.886L94.4 33.2947H99.779V37.1513H94.6534L93.2642 38.1773V45.991H88.4414Z" fill="#0D176B"/>
<path d="M106.445 45.991L102.632 42.7829V36.531L106.445 33.3008H115.333L119.148 36.531V40.9882H107.455V41.4345L108.691 42.4617H117.932V45.9922L106.445 45.991ZM107.455 38.3023H114.328V37.7764L113.092 36.7504H108.692L107.456 37.7764L107.455 38.3023Z" fill="#0D176B"/>
<path d="M124.473 45.9909V31.9167H121.443V28.4609H129.295V45.9909H124.473Z" fill="#0D176B"/>
<path d="M135.506 50.9963V47.418H144.546L145.177 46.9178V45.1391H144.93L143.743 45.991H138.164L134.553 43.0109V33.2947H139.373V41.3119L140.362 42.1381H143.795L145.185 41.1366V33.2947H150.005V48.2699L146.742 50.9963H135.506Z" fill="#0D176B"/>
<path d="M16.2207 22.3612V27.4767L20.9767 30.1344L41.9437 17.7764L41.7435 12.7932L20.7085 24.819L16.2207 22.3612Z" fill="#00C975"/>
<path d="M42.5607 33.6342C42.5607 34.7828 42.578 35.7978 42.5607 36.8104C42.5162 39.0795 42.9562 38.393 40.9539 39.5441C34.5825 43.2144 28.1938 46.8564 21.8211 50.5242C21.428 50.7498 21.1524 50.751 20.7581 50.5242C14.1259 46.7118 7.48587 42.9116 0.837989 39.1236C0.229891 38.7816 0 38.4016 0 37.6918C0.0271914 29.5193 0.0271914 21.3501 0 13.1842C0 12.5945 0.179216 12.2647 0.697088 11.9693C7.41171 8.14704 14.1206 4.317 20.8237 0.479204C21.0474 0.356617 21.4602 0.313711 21.6703 0.432621C25.2905 2.47493 28.8933 4.54788 32.4986 6.6196C32.5815 6.66619 32.6519 6.73483 32.8422 6.87949C32.291 7.20067 31.8016 7.49242 31.3084 7.77315C30.5668 8.2022 29.798 8.60307 29.0713 9.06399C28.6844 9.30917 28.3903 9.29814 27.9972 9.06399C25.9801 7.8847 23.9395 6.74709 21.9237 5.5678C21.4973 5.32263 21.1685 5.26624 20.7136 5.5298C15.6874 8.43022 10.6508 11.3147 5.6039 14.1832C5.10951 14.4664 4.9476 14.7962 4.94883 15.3515C4.96778 22.1257 4.96778 28.9003 4.94883 35.6752C4.94883 36.2882 5.19603 36.5848 5.69041 36.8656C10.6928 39.7137 15.6865 42.5741 20.6716 45.4467C21.145 45.7201 21.4935 45.6919 21.9496 45.4246C28.558 41.622 35.172 37.8295 41.7919 34.0473C41.9921 33.9333 42.2035 33.8254 42.5607 33.6342Z" fill="#0D176B"/>
<path d="M42.5571 25.329C42.5571 27.0256 42.5868 28.5163 42.5287 30.0008C42.5188 30.246 42.1715 30.5561 41.9107 30.7093C36.6018 33.765 31.2871 36.8101 25.9667 39.8445C24.5787 40.6389 23.2018 41.4541 21.7915 42.208C21.5308 42.3466 21.0611 42.3649 20.8114 42.224C16.8477 39.9892 12.9012 37.714 8.94609 35.4645C8.53204 35.2291 8.36889 34.9643 8.37012 34.4838C8.38743 28.5179 8.38743 22.5491 8.37012 16.5775C8.37012 16.081 8.51597 15.7843 8.9671 15.5281C12.9222 13.2848 16.8699 11.012 20.8324 8.76008C21.0252 8.65098 21.3454 8.53575 21.4986 8.61911C22.8582 9.35463 24.1807 10.1429 25.6502 10.9899C24.9791 11.3859 24.4242 11.7255 23.8618 12.0442C20.5753 13.9271 17.2914 15.815 13.9926 17.6832C13.4982 17.959 13.3029 18.2631 13.3054 18.8343C13.3293 23.2867 13.3293 27.7407 13.3054 32.1963C13.3054 32.7185 13.445 33.041 13.9233 33.3094C16.1769 34.5582 18.4182 35.8364 20.647 37.1439C21.1043 37.4112 21.4492 37.4185 21.9201 37.1439C28.4007 33.4132 34.8879 29.6947 41.3817 25.9885C41.7154 25.7948 42.0541 25.6109 42.5571 25.329Z" fill="#0D176B"/>
</g>
<defs>
<clipPath id="clip0_17_303">
<rect width="150" height="51" fill="white"/>
</clipPath>
</defs>
</svg>
