<svg width="129" height="153" viewBox="0 0 129 153" fill="none" xmlns="http://www.w3.org/2000/svg">
<g clip-path="url(#clip0_25_809)">
<path d="M48.9092 66.8725V82.4248L63.1543 90.5026L125.952 52.9371L125.351 37.791L62.3513 74.345L48.9092 66.8725Z" fill="white"/>
<path d="M127.799 101.15C127.799 104.645 127.847 107.726 127.799 110.808C127.666 117.713 128.983 115.617 122.999 119.115C103.915 130.272 84.783 141.341 65.6954 152.492C64.521 153.179 63.6918 153.183 62.5114 152.492C42.6422 140.896 22.7515 129.345 2.83922 117.839C1.01721 116.789 0.327148 115.632 0.327148 113.474C0.410548 88.6448 0.415256 63.8137 0.341273 38.9812C0.341273 37.1878 0.877987 36.1824 2.4276 35.2866C22.5309 23.6686 42.62 12.0236 62.695 0.351421C63.3649 -0.0365226 64.5997 -0.150265 65.2293 0.209243C76.0725 6.42446 86.8633 12.727 97.6622 19.0113C97.9103 19.1555 98.1222 19.3627 98.6912 19.8034C97.0407 20.7804 95.5738 21.6599 94.0969 22.5211C91.8612 23.825 89.5731 25.0437 87.398 26.4411C86.2378 27.1886 85.3561 27.154 84.1797 26.4574C78.1387 22.8745 72.027 19.4155 65.9879 15.8285C64.7107 15.0709 63.7281 14.9166 62.3661 15.7148C47.3072 24.5325 32.222 33.3002 17.1106 42.0178C15.6134 42.881 15.1453 43.8864 15.1494 45.5682C15.2045 66.1623 15.2045 86.7565 15.1494 107.351C15.1494 109.225 15.8878 110.115 17.3688 110.968C32.3511 119.623 47.3085 128.319 62.241 137.056C63.6534 137.884 64.7006 137.785 66.0747 136.987C85.8672 125.43 105.677 113.903 125.503 102.407C126.096 102.049 126.727 101.724 127.799 101.15Z" fill="white"/>
<path d="M127.787 75.8968C127.787 81.0538 127.876 85.5812 127.7 90.0963C127.672 90.8478 126.633 91.7842 125.838 92.2493C109.941 101.54 94.0231 110.797 78.0844 120.021C73.9279 122.434 69.8118 124.912 65.5745 127.201C64.7917 127.625 63.3873 127.68 62.6388 127.252C50.7705 120.46 38.9688 113.539 27.1187 106.707C25.8758 105.99 25.3895 105.186 25.3936 103.715C25.442 85.5703 25.442 67.4257 25.3936 49.281C25.3936 47.7699 25.8274 46.8701 27.1793 46.0942C39.0394 39.2717 50.8492 32.3659 62.6912 25.521C63.2703 25.1859 64.2307 24.8365 64.6888 25.0884C68.7424 27.3389 72.7233 29.7214 77.122 32.2968C75.1043 33.5013 73.4517 34.5209 71.7669 35.4999C61.9225 41.2236 52.0881 46.9656 42.2073 52.6243C40.7485 53.4611 40.1411 54.3852 40.1512 56.1239C40.2225 69.6552 40.2225 83.1878 40.1512 96.7218C40.1512 98.3081 40.5729 99.2871 42.0136 100.104C48.7689 103.932 55.4812 107.835 62.1505 111.815C63.5205 112.628 64.5495 112.652 65.9599 111.827C85.3677 100.475 104.798 89.162 124.252 77.8893C125.267 77.3125 126.278 76.7519 127.787 75.8968Z" fill="white"/>
</g>
<defs>
<clipPath id="clip0_25_809">
<rect width="128.346" height="153" fill="white" transform="translate(0.327148)"/>
</clipPath>
</defs>
</svg>
